<?xml version="1.0" encoding="UTF-8"?>
<svg xmlns="http://www.w3.org/2000/svg" width="920" height="420"><rect width="100%" height="100%" fill="white"/><text x="20" y="25">entry_risk: C1 expectancy</text><line x1="50" y1="355" x2="875" y2="355" stroke="#888"/><polyline points="55.0,155.4 86.2,113.5 117.3,70.0 148.5,204.3 179.6,163.3 210.8,133.5 241.9,237.6 273.1,209.8 304.2,187.4 335.4,180.6 366.5,133.8 397.7,90.7 428.8,227.2 460.0,180.8 491.2,157.1 522.3,257.4 553.5,229.0 584.6,210.1 615.8,180.6 646.9,151.2 678.1,123.9 709.2,229.3 740.4,198.6 771.5,187.8 802.7,257.3 833.8,232.4 865.0,224.5" fill="none" stroke="#2563eb" stroke-width="2"/><text x="55.0" y="390" font-size="11" text-anchor="middle">1</text><text x="86.2" y="390" font-size="11" text-anchor="middle">2</text><text x="117.3" y="390" font-size="11" text-anchor="middle">3</text><text x="148.5" y="390" font-size="11" text-anchor="middle">4</text><text x="179.6" y="390" font-size="11" text-anchor="middle">5</text><text x="210.8" y="390" font-size="11" text-anchor="middle">6</text><text x="241.9" y="390" font-size="11" text-anchor="middle">7</text><text x="273.1" y="390" font-size="11" text-anchor="middle">8</text><text x="304.2" y="390" font-size="11" text-anchor="middle">9</text><text x="335.4" y="390" font-size="11" text-anchor="middle">10</text><text x="366.5" y="390" font-size="11" text-anchor="middle">11</text><text x="397.7" y="390" font-size="11" text-anchor="middle">12</text><text x="428.8" y="390" font-size="11" text-anchor="middle">13</text><text x="460.0" y="390" font-size="11" text-anchor="middle">14</text><text x="491.2" y="390" font-size="11" text-anchor="middle">15</text><text x="522.3" y="390" font-size="11" text-anchor="middle">16</text><text x="553.5" y="390" font-size="11" text-anchor="middle">17</text><text x="584.6" y="390" font-size="11" text-anchor="middle">18</text><text x="615.8" y="390" font-size="11" text-anchor="middle">19</text><text x="646.9" y="390" font-size="11" text-anchor="middle">20</text><text x="678.1" y="390" font-size="11" text-anchor="middle">21</text><text x="709.2" y="390" font-size="11" text-anchor="middle">22</text><text x="740.4" y="390" font-size="11" text-anchor="middle">23</text><text x="771.5" y="390" font-size="11" text-anchor="middle">24</text><text x="802.7" y="390" font-size="11" text-anchor="middle">25</text><text x="833.8" y="390" font-size="11" text-anchor="middle">26</text><text x="865.0" y="390" font-size="11" text-anchor="middle">27</text></svg>
