<?xml version="1.0" encoding="UTF-8"?>
<svg xmlns="http://www.w3.org/2000/svg" width="900" height="420" viewBox="0 0 900 420">
<rect width="100%" height="100%" fill="white"/>
<text x="20" y="28" font-family="sans-serif" font-size="18">T3 trade R distribution</text>
<rect x="50" y="70.00" width="36" height="300.00" fill="#2563eb"/><rect x="91" y="303.90" width="36" height="66.10" fill="#2563eb"/><rect x="132" y="319.15" width="36" height="50.85" fill="#2563eb"/><rect x="173" y="324.24" width="36" height="45.76" fill="#2563eb"/><rect x="214" y="334.41" width="36" height="35.59" fill="#2563eb"/><rect x="255" y="354.75" width="36" height="15.25" fill="#2563eb"/><rect x="296" y="359.83" width="36" height="10.17" fill="#2563eb"/><rect x="337" y="354.75" width="36" height="15.25" fill="#2563eb"/><rect x="378" y="364.92" width="36" height="5.08" fill="#2563eb"/><rect x="419" y="370.00" width="36" height="0.00" fill="#2563eb"/><rect x="460" y="370.00" width="36" height="0.00" fill="#2563eb"/><rect x="501" y="370.00" width="36" height="0.00" fill="#2563eb"/><rect x="542" y="370.00" width="36" height="0.00" fill="#2563eb"/><rect x="583" y="364.92" width="36" height="5.08" fill="#2563eb"/><rect x="624" y="370.00" width="36" height="0.00" fill="#2563eb"/><rect x="665" y="370.00" width="36" height="0.00" fill="#2563eb"/><rect x="706" y="370.00" width="36" height="0.00" fill="#2563eb"/><rect x="747" y="370.00" width="36" height="0.00" fill="#2563eb"/><rect x="788" y="370.00" width="36" height="0.00" fill="#2563eb"/><rect x="829" y="364.92" width="36" height="5.08" fill="#2563eb"/><text x="50" y="400" font-family="sans-serif" font-size="12">-1.00 R</text><text x="820" y="400" font-family="sans-serif" font-size="12">13.99 R</text>
</svg>
