<svg xmlns="http://www.w3.org/2000/svg" width="1200" height="700" viewBox="0 0 1200 700">
<rect width="100%" height="100%" fill="white"/><text x="600.0" y="28" text-anchor="middle" font-family="sans-serif" font-size="20">Trade result distribution (R)</text><rect x="56" y="55" width="55" height="590" fill="#c34641"/><rect x="113" y="487" width="55" height="158" fill="#c34641"/><rect x="170" y="566" width="56" height="79" fill="#3773b4"/><rect x="228" y="566" width="55" height="79" fill="#3773b4"/><rect x="285" y="576" width="55" height="69" fill="#3773b4"/><rect x="342" y="615" width="56" height="30" fill="#3773b4"/><rect x="400" y="625" width="55" height="20" fill="#3773b4"/><rect x="457" y="615" width="55" height="30" fill="#3773b4"/><rect x="514" y="645" width="56" height="0" fill="#3773b4"/><rect x="572" y="645" width="55" height="0" fill="#3773b4"/><rect x="629" y="645" width="56" height="0" fill="#3773b4"/><rect x="687" y="645" width="55" height="0" fill="#3773b4"/><rect x="744" y="645" width="55" height="0" fill="#3773b4"/><rect x="801" y="635" width="56" height="10" fill="#3773b4"/><rect x="859" y="645" width="55" height="0" fill="#3773b4"/><rect x="916" y="645" width="55" height="0" fill="#3773b4"/><rect x="973" y="645" width="56" height="0" fill="#3773b4"/><rect x="1031" y="645" width="55" height="0" fill="#3773b4"/><rect x="1088" y="635" width="56" height="10" fill="#3773b4"/>
<path d="M 55 645 H 1145" fill="none" stroke="#282828" stroke-width="2"/><line x1="127" y1="55" x2="127" y2="645" stroke="#141414" stroke-width="2"/>
</svg>
